<?xml version="1.0" encoding="UTF-8" standalone="no"?>
<svg
   xmlns:dc="http://purl.org/dc/elements/1.1/"
   xmlns:cc="http://creativecommons.org/ns#"
   xmlns:rdf="http://www.w3.org/1999/02/22-rdf-syntax-ns#"
   xmlns:svg="http://www.w3.org/2000/svg"
   xmlns="http://www.w3.org/2000/svg"
   xmlns:sodipodi="http://sodipodi.sourceforge.net/DTD/sodipodi-0.dtd"
   xmlns:inkscape="http://www.inkscape.org/namespaces/inkscape"
   inkscape:version="1.0 (4035a4f, 2020-05-01)"
   sodipodi:docname="lang.svg"
   id="lang"
   y="0px"
   x="0px"
   version="1.1"
   viewBox="0 0 24 24"
   fill="#cdcdcd"
   height="24"
   width="24">
  <metadata
     id="metadata1063">
    <rdf:RDF>
      <cc:Work
         rdf:about="">
        <dc:format>image/svg+xml</dc:format>
        <dc:type
           rdf:resource="http://purl.org/dc/dcmitype/StillImage" />
      </cc:Work>
    </rdf:RDF>
  </metadata>
  <defs
     id="defs1061" />
  <sodipodi:namedview
     inkscape:current-layer="lang"
     inkscape:window-maximized="0"
     inkscape:window-y="63"
     inkscape:window-x="0"
     inkscape:cy="13.161844"
     inkscape:cx="-2.7638314"
     inkscape:zoom="2.7757618"
     showgrid="false"
     id="namedview1059"
     inkscape:window-height="914"
     inkscape:window-width="1654"
     inkscape:pageshadow="2"
     inkscape:pageopacity="0"
     guidetolerance="10"
     gridtolerance="10"
     objecttolerance="10"
     borderopacity="1"
     bordercolor="#666666"
     pagecolor="#ffffff" />
  <g
     transform="matrix(0.36353441,0,0,0.34845157,0.30118165,0.34812374)"
     id="g1056"
     stroke-linejoin="round"
     stroke-linecap="round"
     fill-rule="evenodd"
     fill="#cdcdcd"
     stroke-width="0"
     stroke="none">
    <path
       id="path1054"
       d="M 55.63,22.25 H 39.44 V 11.06 A 6.82,6.82 0 0 0 32.63,4.25 H 8.37 A 6.82,6.82 0 0 0 1.56,11.06 V 26.23 A 6.73,6.73 0 0 0 2.71,30 c 2.4,4.62 13.47,11.45 13.59,11.52 a 1.56,1.56 0 0 0 0.78,0.22 1.49,1.49 0 0 0 1.39,-2.06 A 41.78,41.78 0 0 1 16.61,33 h 8 v 11.2 a 6.81,6.81 0 0 0 6.76,6.8 h 16 a 41.78,41.78 0 0 1 -1.86,6.66 1.49,1.49 0 0 0 1.39,2.06 1.56,1.56 0 0 0 0.78,-0.22 C 47.8,59.43 58.87,52.6 61.27,47.98 A 6.73,6.73 0 0 0 62.42,44.2 V 29.06 A 6.82,6.82 0 0 0 55.63,22.25 Z M 21.49,30 h -6.68 a 1.54,1.54 0 0 0 -1.14,0.53 1.49,1.49 0 0 0 -0.34,1.2 c 0,0.14 0.36,2.31 1,4.89 -3.36,-2.34 -7.78,-5.74 -9,-8 A 1.51,1.51 0 0 0 5.18,28.34 3.65,3.65 0 0 1 4.5,26.18 V 11.06 A 3.82,3.82 0 0 1 8.37,7.25 h 24.26 a 3.82,3.82 0 0 1 3.81,3.81 V 22.25 H 31.37 A 6.81,6.81 0 0 0 26.25,24.58 8.73,8.73 0 0 1 23.16,23.91 13,13 0 0 0 25.93,17 h 0.81 a 1.5,1.5 0 1 0 0,-3 H 22 v -2.67 a 1.5,1.5 0 1 0 -3,0 V 14 h -4.67 a 1.5,1.5 0 1 0 0,3 h 8.58 a 9.88,9.88 0 0 1 -2.2,5.2 10.13,10.13 0 0 1 -2,-3.34 1.5005332,1.5005332 0 1 0 -2.8,1.08 13.48,13.48 0 0 0 2.34,4 9.83,9.83 0 0 1 -3.87,0.71 v 0 a 1.5,1.5 0 1 0 0,3 v 0 a 12.07,12.07 0 0 0 6.33,-1.65 10.61,10.61 0 0 0 4.05,1.45 6.55,6.55 0 0 0 -0.2,1.6 v 1 z m 38,14.2 a 3.65,3.65 0 0 1 -0.68,2.16 1.43,1.43 0 0 0 -0.15,0.27 c -1.18,2.24 -5.61,5.65 -9,8 0.67,-2.58 1,-4.75 1,-4.89 A 1.49,1.49 0 0 0 50.32,48.54 1.52,1.52 0 0 0 49.19,48 H 31.37 A 3.81,3.81 0 0 1 27.56,44.2 V 29.06 a 3.82,3.82 0 0 1 3.81,-3.81 h 24.26 a 3.82,3.82 0 0 1 3.81,3.81 z M 48.92,38.64 v 0 l -4,-10 v 0 a 0.8,0.8 0 0 0 -0.08,-0.16 l -0.06,-0.1 a 0.64,0.64 0 0 0 -0.1,-0.13 L 44.6,28.15 44.49,28.06 44.37,28 a 0.39,0.39 0 0 0 -0.11,-0.06 l -0.15,-0.08 v 0 a 0.35,0.35 0 0 0 -0.11,0 L 43.85,27.81 H 43.7 43.56 43.4 43.27 l -0.17,0.05 a 0.38,0.38 0 0 0 -0.1,0 v 0 L 42.85,27.94 42.7,28 a 0.87,0.87 0 0 0 -0.11,0.09 l -0.11,0.09 -0.09,0.1 a 1.47,1.47 0 0 0 -0.1,0.13 v 0.1 l -0.09,0.16 v 0 l -4,10 v 0 l -2,5 a 1.5,1.5 0 0 0 0.84,2 1.36,1.36 0 0 0 0.56,0.11 1.51,1.51 0 0 0 1.39,-0.94 l 1.62,-4.06 h 6 l 1.62,4.06 a 1.52,1.52 0 0 0 1.4,0.94 1.35,1.35 0 0 0 0.55,-0.11 1.5,1.5 0 0 0 0.84,-2 z m -7.17,-0.92 1.79,-4.46 1.78,4.46 z"
       stroke-linejoin="round"
       stroke-linecap="round"
       fill-rule="evenodd"
       fill="#cdcdcd"
       stroke-width="0"
       stroke="none" />
  </g>
</svg>
